<svg width="200" height="64" viewBox="0 0 200 64" fill="none" xmlns="http://www.w3.org/2000/svg">
<g clip-path="url(#clip0_857_175)">
<path d="M10.1954 43.3544L0 14.0997H4.86059L13.1987 38.4127L21.4973 14.0997H26.3578L16.1229 43.3544H10.1954ZM32.7892 18.8042C31.9726 18.8042 31.3008 18.5275 30.7739 17.974C30.247 17.4205 29.9835 16.7748 29.9835 16.0369C29.9835 15.2726 30.247 14.6268 30.7739 14.0997C31.3008 13.5463 31.9726 13.2695 32.7892 13.2695C33.6059 13.2695 34.2777 13.5463 34.8046 14.0997C35.3578 14.6268 35.6345 15.2726 35.6345 16.0369C35.6345 16.8012 35.3578 17.4601 34.8046 18.0135C34.2777 18.5406 33.6059 18.8042 32.7892 18.8042ZM30.5763 43.3544V22.4017H35.0812V43.3544H30.5763ZM50.706 43.7497C48.9409 43.7497 47.413 43.4466 46.1221 42.8404C44.8575 42.2079 43.8037 41.3777 42.9607 40.3498C42.1439 39.2956 41.5248 38.1228 41.1033 36.8314C40.7081 35.54 40.5105 34.2222 40.5105 32.878C40.5105 31.5603 40.7081 30.2557 41.1033 28.9642C41.4984 27.6728 42.1044 26.5 42.9212 25.4458C43.7379 24.3916 44.7785 23.5614 46.043 22.9552C47.3076 22.3227 48.796 22.0064 50.5084 22.0064C52.3526 22.0064 53.9728 22.4281 55.369 23.2715C56.7917 24.0885 57.8981 25.314 58.6885 26.948C59.5052 28.5557 59.9135 30.5588 59.9135 32.9571V34.1826H45.0551C45.1605 35.7903 45.7005 37.174 46.6753 38.3336C47.6501 39.4933 48.9936 40.0731 50.706 40.0731C51.6808 40.0731 52.4843 39.915 53.1166 39.5987C53.7488 39.2561 54.2362 38.8739 54.5787 38.4522C54.9212 38.0305 55.1583 37.6616 55.29 37.3453C55.4481 37.029 55.5271 36.8709 55.5271 36.8709H59.7159C59.7159 36.8709 59.6501 37.1081 59.5183 37.5825C59.3866 38.0305 59.1363 38.5972 58.7675 39.2824C58.425 39.9677 57.9245 40.6529 57.2659 41.3382C56.6072 42.0234 55.7379 42.6032 54.6577 43.0776C53.5776 43.5257 52.2604 43.7497 50.706 43.7497ZM45.0946 31.02H55.5666C55.4612 29.1751 54.908 27.8178 53.9069 26.948C52.9322 26.0783 51.7862 25.6434 50.4689 25.6434C48.9936 25.6434 47.7686 26.131 46.7938 27.1062C45.8191 28.055 45.2527 29.3596 45.0946 31.02ZM73.5745 43.7497C71.9148 43.7497 70.5844 43.4466 69.5833 42.8404C68.5822 42.2343 67.8577 41.4304 67.4099 40.4289C66.9884 39.401 66.7776 38.2941 66.7776 37.1081V26.0388H63.1025V22.4017H66.7776V17.1833H71.2825V22.4017H76.1827V26.0388H71.2825V37.029C71.2825 39.0057 72.3758 39.994 74.5625 39.994C75.1157 39.994 75.6294 39.9545 76.1036 39.8754C76.5778 39.7964 76.8149 39.7568 76.8149 39.7568V43.4334C76.8149 43.4334 76.4856 43.4861 75.827 43.5916C75.1947 43.697 74.4439 43.7497 73.5745 43.7497ZM84.231 18.8042C83.4143 18.8042 82.7425 18.5275 82.2156 17.974C81.6887 17.4205 81.4252 16.7748 81.4252 16.0369C81.4252 15.2726 81.6887 14.6268 82.2156 14.0997C82.7425 13.5463 83.4143 13.2695 84.231 13.2695C85.0476 13.2695 85.7194 13.5463 86.2463 14.0997C86.7996 14.6268 87.0762 15.2726 87.0762 16.0369C87.0762 16.8012 86.7996 17.4601 86.2463 18.0135C85.7194 18.5406 85.0476 18.8042 84.231 18.8042ZM82.018 43.3544V22.4017H86.5229V43.3544H82.018ZM92.3078 43.3544V22.4017H96.8127V25.4458H97.0498C97.2342 25.0768 97.5504 24.6288 97.9982 24.1017C98.4461 23.5482 99.0652 23.0606 99.8555 22.6389C100.672 22.2172 101.7 22.0064 102.938 22.0064C104.492 22.0064 105.796 22.3622 106.85 23.0738C107.904 23.7854 108.694 24.7342 109.221 25.9202C109.774 27.1062 110.051 28.4108 110.051 29.834V43.3544H105.546V30.3084C105.546 29.0433 105.19 27.9759 104.479 27.1062C103.794 26.2364 102.767 25.8016 101.397 25.8016C100.317 25.8016 99.434 26.0783 98.7491 26.6318C98.0904 27.1589 97.6031 27.8573 97.2869 28.727C96.9708 29.5704 96.8127 30.4797 96.8127 31.4548V43.3544H92.3078Z" fill="#E64A19"/>
<path d="M156.834 43.75C154.542 43.75 152.606 43.2361 151.025 42.2082C149.471 41.1804 148.285 39.8362 147.469 38.1758C146.678 36.5154 146.283 34.7496 146.283 32.8784C146.283 31.0071 146.678 29.2413 147.469 27.5809C148.285 25.9205 149.471 24.5764 151.025 23.5485C152.606 22.5207 154.542 22.0067 156.834 22.0067C159.1 22.0067 161.01 22.5207 162.564 23.5485C164.145 24.5764 165.33 25.9205 166.121 27.5809C166.937 29.2413 167.346 31.0071 167.346 32.8784C167.346 34.7496 166.937 36.5154 166.121 38.1758C165.33 39.8362 164.145 41.1804 162.564 42.2082C161.01 43.2361 159.1 43.75 156.834 43.75ZM156.834 39.9153C158.125 39.9153 159.205 39.5859 160.075 38.927C160.97 38.2681 161.642 37.3983 162.09 36.3178C162.564 35.2372 162.801 34.0907 162.801 32.8784C162.801 31.6397 162.564 30.4932 162.09 29.439C161.642 28.3584 160.97 27.4887 160.075 26.8298C159.205 26.1709 158.125 25.8414 156.834 25.8414C155.543 25.8414 154.45 26.1709 153.554 26.8298C152.659 27.4887 151.987 28.3584 151.539 29.439C151.091 30.4932 150.867 31.6397 150.867 32.8784C150.867 34.0907 151.091 35.2372 151.539 36.3178C151.987 37.3983 152.659 38.2681 153.554 38.927C154.45 39.5859 155.543 39.9153 156.834 39.9153ZM174.52 43.3547V26.0391H171.122V22.4021H174.52V20.1487C174.52 19.3316 174.626 18.5014 174.836 17.6581C175.047 16.8147 175.403 16.0372 175.903 15.3256C176.404 14.5876 177.089 14.0078 177.958 13.5861C178.828 13.1381 179.921 12.9141 181.238 12.9141C182.002 12.9141 182.634 12.98 183.135 13.1117C183.636 13.2172 183.886 13.2699 183.886 13.2699V16.6697C183.886 16.6697 183.688 16.6302 183.293 16.5511C182.924 16.4721 182.503 16.4325 182.029 16.4325C180.869 16.4325 180.079 16.7883 179.658 17.4999C179.236 18.1852 179.025 19.0681 179.025 20.1487V22.4021H183.688V26.0391H179.025V43.3547H174.52ZM196.752 43.75C195.092 43.75 193.762 43.4469 192.76 42.8408C191.759 42.2346 191.035 41.4307 190.587 40.4292C190.166 39.4014 189.955 38.2944 189.955 37.1084V26.0391H186.28V22.4021H189.955V17.1837H194.46V22.4021H199.36V26.0391H194.46V37.0294C194.46 39.006 195.553 39.9944 197.74 39.9944C198.293 39.9944 198.807 39.9548 199.281 39.8758C199.755 39.7967 199.992 39.7572 199.992 39.7572V43.4338C199.992 43.4338 199.663 43.4865 199.004 43.5919C198.372 43.6973 197.621 43.75 196.752 43.75Z" fill="#1D9336"/>
<path d="M143.365 50.7533C141.508 53.7016 138.757 57.2886 139.164 56.2295C139.259 55.9787 139.994 54.4361 140.801 52.8068C143.374 47.5955 142.544 44.077 138.215 41.8909C136.436 40.9873 131.198 39.6228 124 38.1761C118.407 37.0581 115.93 36.013 113.809 33.8909C112.294 32.3758 112.157 32.0289 112.166 29.6331C112.176 28.0175 112.527 26.2377 113.097 24.9691C114.069 22.7968 117.677 17.2109 118.106 17.2109C118.247 17.2109 118.275 17.9365 118.174 18.8174C117.663 23.1847 121.933 26.7169 133.598 31.5726C137.453 33.179 142.826 36.515 144.218 38.167C144.82 38.8789 145.577 40.426 145.906 41.5942C146.677 44.3414 146.102 46.4134 143.365 50.7533Z" fill="#1D9336"/>
<path d="M126.103 22.2962C126.5 23.0629 126.724 23.7839 126.605 23.9026C126.199 24.3133 123.649 20.1468 123.134 18.2255C122.139 14.529 124.119 12.521 132.992 8.24032C139.525 5.08231 141.354 3.52614 141.354 1.10743C141.354 -0.142992 141.436 -0.238828 142.011 0.345313C143.192 1.5501 145.459 6.32361 145.459 7.61512C145.459 9.27627 143.949 11.1337 141.883 12.0099C140.966 12.4023 137.791 13.2192 134.831 13.8262C131.87 14.4331 128.854 15.2363 128.129 15.6106C125.469 16.9888 124.69 19.558 126.103 22.2962Z" fill="#E64A19"/>
<path d="M14.3451 63.1266C14.2971 63.1059 14.249 63.0752 14.201 63.0339C14.1599 62.9996 14.1187 62.9548 14.0775 62.8999C14.0363 62.852 14.0021 62.7901 13.9746 62.7145C14.1667 61.9801 14.3314 61.3419 14.4686 60.7998C14.5989 60.2578 14.7121 59.8045 14.8082 59.4407C14.9111 59.0151 15.0003 58.6584 15.0757 58.3703C15.1444 58.0957 15.2129 57.8212 15.2816 57.5467C15.3365 57.3064 15.3948 57.049 15.4565 56.7744C15.5251 56.4999 15.5869 56.2425 15.6417 56.0022C15.7103 55.7347 15.7515 55.5217 15.7652 55.364C15.779 55.1993 15.7275 55.0587 15.6109 54.9419C15.6932 54.8733 15.7755 54.8219 15.8579 54.7872C15.947 54.7464 16.0259 54.7187 16.0945 54.7051C16.17 54.6845 16.2455 54.6774 16.321 54.6845C16.5062 54.6981 16.6194 54.7565 16.6605 54.8597C16.7086 54.9625 16.7154 55.1272 16.6811 55.3534C16.6742 55.3881 16.6674 55.4189 16.6605 55.4461C16.6605 55.4668 16.6605 55.4909 16.6605 55.5186C16.7566 55.4088 16.8629 55.302 16.9796 55.1993C17.0962 55.0965 17.2128 55.0038 17.3294 54.9212C17.4529 54.8391 17.5764 54.7736 17.6999 54.7257C17.8303 54.6708 17.9538 54.6432 18.0704 54.6432C18.2282 54.6432 18.3551 54.6845 18.4511 54.767C18.5541 54.8421 18.633 54.9454 18.6878 55.0758C18.7427 55.2063 18.777 55.3534 18.7908 55.5186C18.8045 55.6763 18.8079 55.834 18.801 55.9921C18.7942 56.1634 18.7633 56.3453 18.7084 56.5377C18.6604 56.7296 18.5918 56.9255 18.5026 57.1245C18.4134 57.3235 18.3105 57.519 18.1939 57.7114C18.0773 57.9033 17.9538 58.0817 17.8234 58.2464C17.8508 58.2534 17.868 58.2605 17.8749 58.267C17.8817 58.267 17.8852 58.2706 17.8852 58.2776C17.8852 58.2776 17.8886 58.2811 17.8954 58.2877C17.9091 58.2877 17.9332 58.2877 17.9675 58.2877C18.1253 58.2877 18.2865 58.2464 18.4511 58.1643C18.6158 58.0817 18.777 57.9789 18.9348 57.8555C19.0926 57.725 19.2435 57.5844 19.3876 57.4333C19.5386 57.2822 19.6723 57.1382 19.789 57.0007C19.9124 56.8566 20.0154 56.7296 20.0977 56.6198C20.18 56.5034 20.2417 56.4208 20.2829 56.373C20.3378 56.3044 20.3893 56.2596 20.4373 56.239C20.4853 56.2118 20.5231 56.2082 20.5505 56.2289C20.5779 56.2495 20.5916 56.2904 20.5916 56.3523C20.5916 56.4072 20.5711 56.4793 20.5299 56.5684C20.5025 56.6304 20.4442 56.7296 20.355 56.8671C20.2658 57.0042 20.156 57.1588 20.0257 57.3301C19.8953 57.5019 19.7444 57.6802 19.5729 57.8656C19.4082 58.0509 19.2333 58.2192 19.048 58.3703C18.8628 58.5209 18.6707 58.6448 18.4717 58.7406C18.2796 58.8438 18.091 58.8952 17.9057 58.8952C17.8165 58.8952 17.7445 58.8917 17.6896 58.8851C17.6347 58.8781 17.5867 58.8644 17.5455 58.8438C17.5113 58.8302 17.477 58.813 17.4426 58.7924C17.4083 58.7783 17.3672 58.7612 17.3192 58.7406C17.1956 58.8368 17.0687 58.9088 16.9384 58.9571C16.808 59.012 16.6811 59.0393 16.5576 59.0393C16.441 59.0393 16.3381 59.0186 16.2489 58.9773C16.1666 58.9431 16.0979 58.8917 16.0431 58.8231C15.9882 58.7612 15.9436 58.6927 15.9093 58.6171C15.875 58.535 15.8475 58.4559 15.827 58.3804C15.8201 58.408 15.8132 58.4318 15.8064 58.4524C15.8064 58.4731 15.803 58.5007 15.7961 58.535C15.7138 58.8644 15.628 59.2453 15.5388 59.6775C15.4633 60.0482 15.3707 60.4976 15.261 61.0265C15.1581 61.5615 15.0483 62.169 14.9317 62.8485C14.8905 63.0339 14.8185 63.1402 14.7156 63.1679C14.6058 63.1951 14.4823 63.1815 14.3451 63.1266ZM16.2283 56.7437C16.194 56.8601 16.1563 56.9976 16.1151 57.1553C16.0808 57.3064 16.0396 57.4882 15.9916 57.7008C16.0465 57.6596 16.1083 57.6288 16.1768 57.6082C16.2455 57.5875 16.3141 57.5774 16.3827 57.5774C16.4582 57.5774 16.5542 57.6187 16.6708 57.7008C16.7875 57.7764 16.9281 57.859 17.0928 57.9481C17.1956 57.8247 17.302 57.6872 17.4118 57.5361C17.5284 57.3784 17.6313 57.2172 17.7205 57.0525C17.8165 56.8878 17.8954 56.7195 17.9572 56.5478C18.0258 56.3765 18.0635 56.2118 18.0704 56.0536C18.0841 55.8481 18.0601 55.6864 17.9984 55.57C17.9366 55.4532 17.8337 55.3947 17.6896 55.3947C17.477 55.3947 17.2437 55.5217 16.9898 55.7756C16.7429 56.0229 16.489 56.3453 16.2283 56.7437ZM28.3119 56.4656C28.3599 56.4107 28.4079 56.3831 28.456 56.3831C28.5109 56.3765 28.552 56.3901 28.5794 56.4244C28.6137 56.4516 28.6275 56.4964 28.6206 56.5583C28.6206 56.6198 28.5932 56.6888 28.5383 56.7639C28.4079 56.9427 28.257 57.128 28.0855 57.32C27.914 57.5054 27.7287 57.6872 27.5298 57.8656C27.3377 58.0443 27.1422 58.2121 26.9432 58.3703C26.7442 58.528 26.5521 58.6584 26.3669 58.7612C26.1611 58.8781 25.9862 58.9365 25.8421 58.9365C25.7048 58.9365 25.5676 58.8473 25.4304 58.6685C25.3069 58.5108 25.2452 58.3426 25.2452 58.1643C25.2521 57.9789 25.2932 57.7492 25.3687 57.4746C25.4167 57.3029 25.4819 57.1004 25.5642 56.8671C25.6534 56.6269 25.722 56.3971 25.77 56.1775C25.8249 55.9579 25.8421 55.7725 25.8215 55.6214C25.8009 55.4633 25.7117 55.3846 25.5539 55.3846C25.4442 55.3846 25.3241 55.4224 25.1938 55.498C25.0702 55.5731 24.9433 55.6728 24.813 55.7962C24.6895 55.9131 24.5694 56.047 24.4528 56.1977C24.3361 56.3488 24.2333 56.4964 24.1441 56.6405C24.0892 56.9084 24.0343 57.1724 23.9794 57.4333C23.9314 57.653 23.8799 57.8932 23.8251 58.1542C23.777 58.408 23.729 58.6343 23.681 58.8332C23.6398 58.8675 23.5952 58.8917 23.5472 58.9053C23.4992 58.9193 23.4546 58.9259 23.4134 58.9259C23.3654 58.9259 23.3174 58.9229 23.2694 58.9158C23.2145 58.9022 23.163 58.8816 23.115 58.8539C23.0738 58.8267 23.0327 58.7889 22.9915 58.7406C22.9503 58.6997 22.9195 58.6413 22.8989 58.5657C23.2076 57.2958 23.4511 56.2768 23.6295 55.5081C23.8079 54.7394 23.9451 54.1525 24.0412 53.7475C24.1509 53.267 24.2264 52.9344 24.2676 52.7491C24.2882 52.6186 24.3053 52.4917 24.319 52.3682C24.3327 52.2584 24.3396 52.1451 24.3396 52.0283C24.3396 51.9119 24.3293 51.8051 24.3087 51.7094C24.3636 51.6751 24.4219 51.6474 24.4837 51.6268C24.5523 51.6061 24.6175 51.589 24.6792 51.5754C24.7547 51.5547 24.8301 51.5376 24.9056 51.524C24.9811 51.5099 25.0496 51.5033 25.1114 51.5033C25.1663 51.5033 25.2178 51.5099 25.2658 51.524C25.3138 51.5306 25.3447 51.5512 25.3584 51.5855C25.3995 51.6197 25.4167 51.6887 25.4099 51.7915C25.4099 51.8947 25.403 52.001 25.3893 52.1108C25.3618 52.2413 25.331 52.3819 25.2966 52.533C25.1526 53.0886 24.9913 53.6311 24.813 54.1595C24.6346 54.6809 24.4699 55.2406 24.319 55.8375C24.4082 55.7005 24.5145 55.5595 24.638 55.4154C24.7615 55.2713 24.8953 55.1408 25.0394 55.024C25.1903 54.9006 25.3481 54.8013 25.5127 54.7257C25.6774 54.6432 25.8524 54.6023 26.0376 54.6023C26.1336 54.6023 26.2228 54.6194 26.3051 54.6537C26.3943 54.6809 26.4698 54.7323 26.5315 54.8079C26.6002 54.8768 26.6516 54.9726 26.6859 55.0965C26.7202 55.2129 26.734 55.3605 26.7271 55.5388C26.7271 55.6486 26.7134 55.762 26.6859 55.8788C26.6653 55.9952 26.6345 56.1257 26.5933 56.2697C26.5521 56.4072 26.4972 56.5614 26.4287 56.7332C26.3669 56.9049 26.2914 57.1039 26.2022 57.3301C26.1405 57.4882 26.0925 57.6222 26.0582 57.732C26.0239 57.8418 26.0307 57.9376 26.0788 58.0202C26.1405 58.13 26.2606 58.1572 26.4389 58.1023C26.6242 58.0408 26.8986 57.8621 27.2622 57.5673C27.3445 57.4983 27.4371 57.4127 27.5401 57.3099C27.643 57.2067 27.7425 57.1039 27.8385 57.0007C27.9346 56.8908 28.0237 56.7881 28.1061 56.6919C28.1884 56.5961 28.257 56.5206 28.3119 56.4656ZM36.3511 56.6818C36.2551 56.8188 36.1316 56.9906 35.9807 57.1966C35.8297 57.3956 35.6719 57.5981 35.5073 57.8041C35.3495 58.0031 35.1917 58.1884 35.0339 58.3597C34.883 58.5245 34.756 58.6413 34.6531 58.7098C34.5845 58.7511 34.5056 58.7854 34.4165 58.813C34.3272 58.8403 34.2346 58.8574 34.1386 58.8644C34.0494 58.871 33.9636 58.8644 33.8813 58.8438C33.799 58.8302 33.7269 58.8025 33.6652 58.7612C33.6035 58.7133 33.552 58.6448 33.5109 58.5556C33.4765 58.4801 33.4422 58.3804 33.4079 58.2569C33.3805 58.1335 33.3702 57.9789 33.3771 57.7935C33.2124 58.0681 33.0306 58.2811 32.8316 58.4318C32.6327 58.5758 32.444 58.6826 32.2656 58.7511C32.0598 58.8267 31.854 58.871 31.6482 58.8851C31.5521 58.8851 31.4492 58.8504 31.3394 58.7819C31.2297 58.7204 31.1371 58.6206 31.0616 58.4836C30.9862 58.3391 30.9381 58.1572 30.9175 57.9376C30.8969 57.7114 30.9244 57.4434 30.9999 57.1346C31.0959 56.716 31.2468 56.3352 31.4527 55.9921C31.6653 55.6486 31.8952 55.357 32.1422 55.1167C32.3891 54.8698 32.6327 54.6844 32.8728 54.561C33.1129 54.4376 33.3119 54.3827 33.4697 54.3963C33.6549 54.4306 33.8058 54.4855 33.9225 54.561C34.0185 54.6295 34.0803 54.7323 34.1077 54.8698C34.142 55.0003 34.0871 55.1751 33.943 55.3947C34.0391 55.3741 34.118 55.3605 34.1797 55.3534C34.2483 55.3469 34.2998 55.3433 34.3341 55.3433C34.3753 55.3433 34.4027 55.3469 34.4165 55.3534C34.4233 55.3675 34.4267 55.3982 34.4267 55.4461C34.4267 55.4874 34.4165 55.5665 34.3959 55.6829C34.3753 55.7997 34.3444 55.9579 34.3032 56.1568C34.2621 56.3558 34.2072 56.6132 34.1386 56.9286C34.1249 56.9906 34.1111 57.049 34.0974 57.1039C34.0906 57.1518 34.0803 57.2032 34.0666 57.2581C34.0597 57.3064 34.0494 57.3648 34.0357 57.4333C34.0219 57.5019 34.0048 57.5875 33.9842 57.6907C33.9774 57.7522 33.9739 57.8212 33.9739 57.8968C33.9808 57.9653 33.9945 58.0303 34.0151 58.0922C34.0357 58.1542 34.0666 58.2055 34.1077 58.2464C34.1557 58.2811 34.2209 58.2982 34.3032 58.2982C34.3718 58.2982 34.461 58.2569 34.5708 58.1744C34.6806 58.0852 34.7972 57.9754 34.9207 57.8449C35.0442 57.7079 35.1711 57.5603 35.3015 57.4026C35.4387 57.2379 35.5656 57.0797 35.6822 56.9286C35.7988 56.778 35.9018 56.644 35.9909 56.5271C36.087 56.4107 36.1556 56.3246 36.1967 56.2697C36.2516 56.2082 36.3065 56.174 36.3614 56.167C36.4163 56.1533 36.4575 56.1669 36.4849 56.2082C36.5123 56.2495 36.5158 56.311 36.4952 56.3936C36.4815 56.4758 36.4334 56.5719 36.3511 56.6818ZM33.3359 57.1346C33.3702 56.9976 33.4114 56.8364 33.4594 56.651C33.5074 56.4656 33.5486 56.2873 33.5829 56.1156C33.6172 55.9438 33.6412 55.8032 33.6549 55.6934C33.6755 55.5766 33.672 55.5217 33.6446 55.5287C33.6103 55.5357 33.5726 55.5458 33.5314 55.5595C33.4971 55.5731 33.4525 55.5836 33.3976 55.5906C33.3427 55.5972 33.2878 55.6078 33.233 55.6214C33.2878 55.5116 33.3188 55.4224 33.3256 55.3534C33.3393 55.2783 33.3427 55.2199 33.3359 55.1786C33.329 55.1307 33.3153 55.093 33.2947 55.0653C33.2193 55.0038 33.0855 55.0552 32.8934 55.2199C32.7081 55.3776 32.492 55.6728 32.245 56.105C32.1422 56.2838 32.0598 56.4757 31.9981 56.6818C31.9363 56.8807 31.8918 57.0696 31.8643 57.248C31.8437 57.4263 31.8403 57.5844 31.854 57.7215C31.8677 57.8519 31.8952 57.9376 31.9363 57.9789C32.0118 58.0544 32.0976 58.0922 32.1936 58.0922C32.2896 58.0852 32.3857 58.058 32.4817 58.0096C32.5847 57.9547 32.6841 57.8862 32.7802 57.8041C32.8831 57.7215 32.9723 57.6358 33.0478 57.5467C33.1301 57.4575 33.1952 57.3749 33.2433 57.2994C33.2982 57.2238 33.329 57.1689 33.3359 57.1346ZM41.8794 58.9879C41.7216 58.9879 41.5844 58.9571 41.4677 58.8952C41.358 58.8403 41.2688 58.7647 41.2002 58.6685C41.1316 58.5728 41.087 58.463 41.0664 58.3391C41.0458 58.2086 41.0527 58.0716 41.087 57.9275C41.1076 57.8313 41.1419 57.7044 41.1899 57.5467C41.2379 57.3819 41.286 57.2067 41.334 57.0213C41.3888 56.8294 41.4369 56.6405 41.4781 56.4551C41.526 56.2631 41.557 56.0914 41.5707 55.9403C41.5844 55.7826 41.5775 55.6557 41.5501 55.5595C41.5226 55.4567 41.4643 55.4053 41.3751 55.4053C41.2654 55.4053 41.1522 55.4431 41.0356 55.5186C40.9189 55.5871 40.7988 55.6829 40.6753 55.8068C40.5587 55.9302 40.4387 56.0743 40.3152 56.239C40.1985 56.3971 40.0819 56.5614 39.9653 56.7332C39.9035 56.9664 39.8521 57.1724 39.8109 57.3508C39.7697 57.5225 39.732 57.6802 39.6977 57.8247C39.6703 57.9618 39.6428 58.0852 39.6154 58.195C39.588 58.2982 39.5639 58.3975 39.5433 58.4937C39.5228 58.5622 39.461 58.6308 39.3581 58.6997C39.2552 58.7612 39.1455 58.813 39.0288 58.8539C38.9122 58.8952 38.8127 58.9158 38.7304 58.9158C38.6412 58.9158 38.6035 58.8851 38.6172 58.8231C38.6241 58.7819 38.6481 58.6892 38.6892 58.5451C38.7235 58.401 38.7681 58.2328 38.823 58.0408C38.871 57.8418 38.9225 57.6323 38.9774 57.4127C39.0323 57.1931 39.0837 56.9835 39.1317 56.7845C39.166 56.6269 39.2038 56.4516 39.2449 56.2596C39.2792 56.0949 39.3204 55.9025 39.3684 55.6829C39.4233 55.4633 39.485 55.2234 39.5537 54.9625C39.6017 54.9212 39.6497 54.8905 39.6977 54.8698C39.7526 54.8421 39.8075 54.8219 39.8624 54.8079C39.9173 54.7872 39.9756 54.7736 40.0373 54.767C40.0922 54.767 40.1471 54.7701 40.202 54.7771C40.25 54.7842 40.298 54.7978 40.346 54.8184C40.4009 54.832 40.4489 54.8562 40.4901 54.8905C40.4695 54.9383 40.4455 55.0069 40.4181 55.0965C40.3906 55.1786 40.3632 55.2678 40.3358 55.364C40.3083 55.4738 40.274 55.5871 40.2328 55.7035C40.3221 55.5801 40.4215 55.4567 40.5313 55.3332C40.6479 55.2028 40.7714 55.0859 40.9018 54.9831C41.039 54.8799 41.183 54.7978 41.334 54.7358C41.4849 54.6673 41.6393 54.6331 41.797 54.6331C41.9274 54.6331 42.044 54.6708 42.1469 54.7464C42.2499 54.8219 42.3288 54.9282 42.3837 55.0653C42.4454 55.1958 42.4797 55.3534 42.4865 55.5388C42.5003 55.7242 42.4763 55.9267 42.4145 56.1463L42.3013 56.5992C42.267 56.7437 42.2224 56.915 42.1675 57.114C42.1195 57.3064 42.0578 57.519 41.9823 57.7522C41.9412 57.9033 41.924 58.0338 41.9308 58.1436C41.9446 58.2534 42.0132 58.3083 42.1367 58.3083C42.2601 58.3083 42.4145 58.2328 42.5998 58.0817C42.7919 57.931 42.984 57.7492 43.1761 57.5361C43.3682 57.3235 43.5499 57.1074 43.7214 56.8878C43.893 56.6611 44.0235 56.4793 44.1126 56.3418C44.1741 56.2526 44.2325 56.1946 44.2874 56.167C44.3422 56.1397 44.3835 56.1362 44.4107 56.1568C44.4454 56.1775 44.4626 56.2254 44.4626 56.3009C44.4626 56.3694 44.4349 56.4586 44.38 56.5684C44.3322 56.6646 44.2566 56.7916 44.1539 56.9493C44.0577 57.1074 43.9409 57.2756 43.8038 57.454C43.6666 57.6323 43.5191 57.8142 43.3613 57.9995C43.2035 58.1779 43.0388 58.3426 42.8673 58.4937C42.6958 58.6378 42.5243 58.7546 42.3528 58.8438C42.1881 58.94 42.0303 58.9879 41.8794 58.9879ZM51.6476 58.2569C51.6476 58.1129 51.6612 57.9481 51.6885 57.7628C51.7231 57.5774 51.764 57.3885 51.8123 57.1966C51.8601 56.9976 51.908 56.8052 51.9563 56.6198C52.0042 56.4345 52.0454 56.2697 52.0797 56.1257C52.121 55.9473 52.1174 55.8103 52.0696 55.7141C52.0213 55.6179 51.9392 55.57 51.8224 55.57C51.7675 55.57 51.6577 55.6179 51.4931 55.7141C51.3354 55.8103 51.1603 55.9781 50.9684 56.2183C50.7831 56.4516 50.5978 56.7709 50.4125 57.1759C50.2342 57.5739 50.0937 58.0817 49.9906 58.6997C49.8601 58.7682 49.7368 58.813 49.6204 58.8332C49.5585 58.8473 49.5036 58.8574 49.4558 58.8644C49.3183 58.871 49.2292 58.8473 49.1879 58.7924C49.1466 58.7441 49.1537 58.6206 49.2086 58.4217C49.2362 58.3255 49.2841 58.1713 49.3526 57.9582C49.4281 57.7456 49.5001 57.5155 49.5686 57.2686C49.6375 57.0147 49.6955 56.7639 49.7438 56.517C49.7987 56.2631 49.8259 56.0435 49.8259 55.8581C49.8259 55.7277 49.8022 55.6385 49.7539 55.5906C49.7126 55.5423 49.6511 55.5186 49.5686 55.5186C49.5071 55.5186 49.4039 55.5529 49.2599 55.6214C49.1159 55.6899 48.9548 55.8239 48.7765 56.0229C48.5978 56.2219 48.4195 56.4999 48.2413 56.8566C48.0696 57.2067 47.9221 57.6631 47.7987 58.2262V58.2056C47.7851 58.2605 47.7714 58.3154 47.7574 58.3703C47.7438 58.4182 47.7337 58.4695 47.7267 58.5245C47.7196 58.5794 47.7095 58.6308 47.6959 58.6791L47.1813 58.9053C47.1471 58.9193 47.1023 58.9294 47.0474 58.9365C46.9996 58.9431 46.9513 58.933 46.9034 58.9053C46.8621 58.8851 46.8314 58.8368 46.8107 58.7612C46.7901 58.6857 46.7971 58.5728 46.8314 58.4217L47.4799 55.7347C47.5001 55.6456 47.5172 55.5595 47.5313 55.4773C47.5449 55.4018 47.5519 55.3297 47.5519 55.2612C47.5585 55.1856 47.555 55.1237 47.5414 55.0758C47.6582 55.0209 47.7609 54.9796 47.85 54.952C47.9392 54.9247 48.0112 54.9041 48.0661 54.8905C48.135 54.8698 48.1934 54.8597 48.2413 54.8597C48.4608 54.8597 48.5328 55.0482 48.4573 55.4259C48.4301 55.5357 48.3888 55.6969 48.3339 55.9095C48.4643 55.7448 48.6013 55.5906 48.7453 55.4461C48.8964 55.2955 49.0474 55.1615 49.1985 55.0446C49.3491 54.9282 49.5001 54.8356 49.6511 54.767C49.8088 54.6981 49.9633 54.6638 50.1144 54.6638C50.2307 54.6638 50.3269 54.6981 50.4024 54.767C50.4845 54.8356 50.5464 54.9282 50.5877 55.0446C50.6356 55.1545 50.6632 55.2884 50.6698 55.4461C50.6768 55.5972 50.6698 55.7554 50.6492 55.9201C50.7589 55.7756 50.8792 55.6315 51.0097 55.4874C51.1466 55.3363 51.2871 55.2028 51.4316 55.0859C51.5822 54.9695 51.7368 54.8733 51.8944 54.7978C52.0525 54.7222 52.2101 54.6845 52.3677 54.6845C52.553 54.6845 52.694 54.7394 52.7897 54.8492C52.8929 54.959 52.9614 55.0996 52.9956 55.2713C53.0369 55.4431 53.047 55.6284 53.0263 55.8274C53.0127 56.0264 52.9855 56.2183 52.9442 56.4037L52.5943 57.7935C52.5188 58.1366 52.5908 58.3083 52.8103 58.3083C52.982 58.3083 53.1704 58.2262 53.3763 58.0615C53.5822 57.8968 53.7811 57.7008 53.9734 57.4746C54.1723 57.248 54.3576 57.0147 54.5289 56.7744C54.7005 56.5342 54.8446 56.3418 54.9614 56.1977C55.0022 56.1498 55.0435 56.1221 55.0847 56.1156C55.1326 56.1085 55.1704 56.1191 55.198 56.1463C55.2323 56.167 55.2494 56.2047 55.2494 56.2596C55.256 56.3145 55.2388 56.3831 55.198 56.4656C55.0606 56.7059 54.8924 56.9734 54.6935 57.2686C54.4946 57.5568 54.2751 57.8278 54.0349 58.0817C53.8017 58.336 53.5515 58.5486 53.2836 58.7204C53.0162 58.8917 52.7383 58.9773 52.4503 58.9773C52.3541 58.9773 52.2579 58.9672 52.1622 58.9466C52.0727 58.9259 51.987 58.8882 51.9049 58.8332C51.8294 58.7783 51.7675 58.7063 51.7196 58.6171C51.6713 58.5209 51.6476 58.401 51.6476 58.2569ZM62.2391 56.5891C62.0331 56.8908 61.8 57.186 61.5392 57.4746C61.2784 57.7558 61.0004 58.0096 60.7054 58.2363C60.4173 58.4559 60.1188 58.6343 59.8101 58.7718C59.5084 58.9088 59.2134 58.9773 58.9253 58.9773C58.7743 58.9773 58.6097 58.94 58.4314 58.8644C58.2597 58.7955 58.1021 58.6857 57.9581 58.535C57.8136 58.3839 57.6972 58.1884 57.6081 57.9481C57.5256 57.7079 57.5019 57.4162 57.5361 57.0731C57.5633 56.7916 57.6489 56.4964 57.7934 56.1876C57.944 55.8718 58.1258 55.5836 58.3387 55.3227C58.5583 55.0618 58.8015 54.8457 59.0694 54.6743C59.3438 54.5026 59.6182 54.4169 59.8926 54.4169C60.1534 54.4169 60.3418 54.482 60.4586 54.6124C60.5754 54.7429 60.6268 54.9041 60.6127 55.0965C60.5925 55.3091 60.5306 55.5045 60.4279 55.6829C60.3317 55.8617 60.2149 56.0229 60.0779 56.167C59.9405 56.311 59.793 56.4415 59.6353 56.5583C59.4843 56.6747 59.3403 56.781 59.2033 56.8772C59.0522 56.9805 58.9082 57.0797 58.7708 57.1759C58.6338 57.2651 58.5135 57.3477 58.4107 57.4228C58.4173 57.5945 58.4485 57.7386 58.5034 57.8555C58.5583 57.9719 58.6268 58.0681 58.7093 58.1436C58.7914 58.2121 58.8841 58.264 58.9868 58.2982C59.0966 58.3255 59.2064 58.3391 59.3161 58.3391C59.5497 58.3391 59.793 58.267 60.0468 58.123C60.301 57.9719 60.5477 57.7935 60.7879 57.5875C61.0347 57.3749 61.2612 57.1553 61.4672 56.9286C61.6797 56.7024 61.8549 56.5069 61.9919 56.3418C62.0397 56.2873 62.088 56.2561 62.1359 56.2495C62.1908 56.2355 62.232 56.2425 62.2593 56.2697C62.294 56.2904 62.3111 56.3317 62.3111 56.3936C62.3111 56.4485 62.2869 56.5135 62.2391 56.5891ZM59.6046 55.0038C59.5221 55.0038 59.4228 55.0446 59.306 55.1272C59.1963 55.2094 59.0865 55.3297 58.9767 55.4874C58.8669 55.6385 58.7642 55.8274 58.668 56.0536C58.5719 56.2733 58.4999 56.5271 58.452 56.8157C58.5341 56.7538 58.6233 56.6919 58.7194 56.6304C58.8156 56.5614 58.9113 56.4894 59.0075 56.4143C59.3025 56.1876 59.5084 55.9886 59.6248 55.8169C59.7416 55.6456 59.807 55.498 59.8206 55.3741C59.8342 55.2436 59.8206 55.1514 59.7794 55.0965C59.7381 55.0345 59.6797 55.0038 59.6046 55.0038ZM69.4549 58.2569C69.4549 58.1129 69.4685 57.9481 69.4962 57.7628C69.5304 57.5774 69.5717 57.3885 69.6195 57.1966C69.6674 56.9976 69.7157 56.8052 69.7635 56.6198C69.8114 56.4345 69.8527 56.2697 69.8869 56.1257C69.9282 55.9473 69.9247 55.8103 69.8768 55.7141C69.829 55.6179 69.7464 55.57 69.6296 55.57C69.5747 55.57 69.465 55.6179 69.3003 55.7141C69.1427 55.8103 68.9679 55.9781 68.7756 56.2183C68.5903 56.4516 68.405 56.7709 68.2197 57.1759C68.0415 57.5739 67.901 58.0817 67.7982 58.6997C67.6678 58.7682 67.544 58.813 67.4277 58.8332C67.3657 58.8473 67.3109 58.8574 67.263 58.8644C67.1256 58.871 67.0364 58.8473 66.9952 58.7924C66.9543 58.7441 66.9609 58.6206 67.0158 58.4217C67.0435 58.3255 67.0913 58.1713 67.1598 57.9582C67.2353 57.7456 67.3073 57.5155 67.3763 57.2686C67.4448 57.0147 67.5032 56.7639 67.551 56.517C67.6059 56.2631 67.6336 56.0435 67.6336 55.8581C67.6336 55.7277 67.6094 55.6385 67.5611 55.5906C67.5203 55.5423 67.4584 55.5186 67.3763 55.5186C67.3144 55.5186 67.2116 55.5529 67.0672 55.6214C66.9232 55.6899 66.762 55.8239 66.5837 56.0229C66.4055 56.2219 66.2268 56.4999 66.0485 56.8566C65.8773 57.2067 65.7297 57.6631 65.6059 58.2262V58.2056C65.5923 58.2605 65.5787 58.3154 65.5651 58.3703C65.551 58.4182 65.5409 58.4695 65.5339 58.5245C65.5273 58.5794 65.5168 58.6308 65.5032 58.6791L64.9886 58.9053C64.9543 58.9193 64.9095 58.9294 64.8547 58.9365C64.8068 58.9431 64.7589 58.933 64.7106 58.9053C64.6698 58.8851 64.6386 58.8368 64.618 58.7612C64.5974 58.6857 64.6044 58.5728 64.6386 58.4217L65.2871 55.7347C65.3078 55.6456 65.3249 55.5595 65.3385 55.4773C65.3521 55.4018 65.3592 55.3297 65.3592 55.2612C65.3657 55.1856 65.3627 55.1237 65.3486 55.0758C65.4654 55.0209 65.5682 54.9796 65.6577 54.952C65.7469 54.9247 65.8189 54.9041 65.8738 54.8905C65.9423 54.8698 66.0006 54.8597 66.0485 54.8597C66.268 54.8597 66.3401 55.0482 66.2645 55.4259C66.2373 55.5357 66.196 55.6969 66.1412 55.9095C66.2716 55.7448 66.4086 55.5906 66.553 55.4461C66.7036 55.2955 66.8547 55.1615 67.0057 55.0446C67.1567 54.9282 67.3073 54.8356 67.4584 54.767C67.616 54.6981 67.7706 54.6638 67.9216 54.6638C68.038 54.6638 68.1341 54.6981 68.2096 54.767C68.2922 54.8356 68.3537 54.9282 68.3949 55.0446C68.4428 55.1545 68.4705 55.2884 68.477 55.4461C68.4841 55.5972 68.477 55.7554 68.4569 55.9201C68.5666 55.7756 68.6865 55.6315 68.8169 55.4874C68.9539 55.3363 69.0948 55.2028 69.2389 55.0859C69.3899 54.9695 69.544 54.8733 69.7016 54.7978C69.8597 54.7222 70.0173 54.6845 70.1754 54.6845C70.3603 54.6845 70.5012 54.7394 70.5974 54.8492C70.7001 54.959 70.7686 55.0996 70.8028 55.2713C70.8441 55.4431 70.8542 55.6284 70.834 55.8274C70.82 56.0264 70.7927 56.2183 70.7515 56.4037L70.4015 57.7935C70.326 58.1366 70.398 58.3083 70.6176 58.3083C70.7892 58.3083 70.978 58.2262 71.1835 58.0615C71.3895 57.8968 71.5884 57.7008 71.7807 57.4746C71.9796 57.248 72.1649 57.0147 72.3361 56.7744C72.5078 56.5342 72.6518 56.3418 72.7686 56.1977C72.8099 56.1498 72.8507 56.1221 72.892 56.1156C72.9398 56.1085 72.9776 56.1191 73.0053 56.1463C73.0395 56.167 73.0566 56.2047 73.0566 56.2596C73.0637 56.3145 73.0465 56.3831 73.0053 56.4656C72.8678 56.7059 72.7001 56.9734 72.5008 57.2686C72.3019 57.5568 72.0823 57.8278 71.8421 58.0817C71.609 58.336 71.3587 58.5486 71.0913 58.7204C70.8235 58.8917 70.5455 58.9773 70.2575 58.9773C70.1614 58.9773 70.0656 58.9672 69.9695 58.9466C69.8803 58.9259 69.7943 58.8882 69.7122 58.8332C69.6367 58.7783 69.5747 58.7063 69.5269 58.6171C69.479 58.5209 69.4549 58.401 69.4549 58.2569ZM79.1818 56.1257C79.2094 56.0848 79.2437 56.0607 79.2845 56.0536C79.3328 56.04 79.3706 56.0435 79.3978 56.0642C79.4255 56.0848 79.4391 56.1191 79.4391 56.167C79.4461 56.2148 79.429 56.2803 79.3877 56.3624C79.2503 56.6233 79.0685 56.9049 78.8424 57.2067C78.6228 57.5089 78.3892 57.7935 78.1425 58.0615C77.8953 58.322 77.6555 58.5381 77.4219 58.7098C77.1888 58.8816 76.9934 58.9672 76.8353 58.9672C76.6092 58.9672 76.4204 58.9229 76.2694 58.8332C76.1188 58.7441 75.9985 58.6343 75.9093 58.5038C75.8268 58.3738 75.7688 58.2328 75.7346 58.0817C75.6999 57.924 75.6898 57.7799 75.7034 57.6494C75.7104 57.5396 75.7346 57.3442 75.7754 57.0626C75.8167 56.7744 75.8716 56.445 75.9401 56.0743C76.009 55.6969 76.0841 55.2955 76.1666 54.8698C76.2558 54.4376 76.3484 54.022 76.4446 53.6241C76.3278 53.6377 76.211 53.6518 76.0946 53.6654C75.9778 53.679 75.8716 53.686 75.7754 53.686C75.5559 53.686 75.3504 53.6619 75.1581 53.614C74.9592 53.5591 74.8116 53.5072 74.7155 53.4594C74.6606 53.4321 74.6369 53.3944 74.6435 53.346C74.6505 53.2911 74.6711 53.2397 74.7054 53.1919C74.7396 53.1369 74.784 53.0921 74.8388 53.0579C74.8871 53.0166 74.9315 52.9959 74.9728 52.9959C75.1032 53.01 75.2437 53.0236 75.3947 53.0372C75.5458 53.0443 75.7104 53.0443 75.8887 53.0372C76.0191 53.0302 76.1425 53.0201 76.2593 53.0065C76.3826 52.9929 76.503 52.9753 76.6193 52.9551C76.7084 52.6256 76.7945 52.3406 76.8766 52.1003C76.9657 51.8534 77.0448 51.6817 77.1133 51.5855C77.1339 51.5512 77.1787 51.524 77.2472 51.5033C77.3227 51.4757 77.4013 51.4585 77.4839 51.4519C77.566 51.4379 77.645 51.4379 77.7205 51.4519C77.796 51.4585 77.8509 51.4827 77.8852 51.524C77.9194 51.5789 77.933 51.7195 77.9264 51.9461C77.9194 52.1723 77.8817 52.4609 77.8132 52.8106C78.1012 52.8106 78.355 52.8277 78.5745 52.8624C78.8011 52.8896 78.993 52.9239 79.151 52.9652C79.3087 52.9995 79.4356 53.0372 79.5317 53.0785C79.6279 53.1128 79.6999 53.1369 79.7477 53.1506C79.796 53.1642 79.8198 53.1984 79.8198 53.2533C79.8268 53.3083 79.8162 53.3667 79.789 53.4286C79.7684 53.4835 79.7306 53.5314 79.6757 53.5727C79.6208 53.614 79.5589 53.6276 79.4904 53.614C79.4219 53.607 79.3429 53.5933 79.2538 53.5727C79.1717 53.552 79.0685 53.5349 78.9451 53.5213C78.8283 53.5072 78.6878 53.4936 78.5232 53.48C78.3585 53.4664 78.1666 53.4594 77.9471 53.4594C77.9058 53.4594 77.8575 53.4629 77.8026 53.4695C77.7548 53.4695 77.7034 53.4695 77.6485 53.4695C77.6208 53.5793 77.5936 53.6891 77.566 53.7989C77.5458 53.9021 77.5146 54.0119 77.4733 54.1283C77.3842 54.4029 77.2814 54.7016 77.1646 55.024C77.0619 55.3056 76.9385 55.6284 76.7945 55.9921C76.65 56.3558 76.4889 56.7437 76.3106 57.1553C76.2694 57.4505 76.2729 57.6771 76.3207 57.8348C76.3756 57.9859 76.441 58.0957 76.5166 58.1643C76.6057 58.2398 76.7155 58.2811 76.8459 58.2877C76.9486 58.3013 77.072 58.267 77.2165 58.1849C77.3671 58.0957 77.5216 57.9789 77.6792 57.8348C77.8373 57.6907 77.9949 57.5326 78.1526 57.3613C78.3172 57.1895 78.4683 57.0213 78.6057 56.8566C78.7427 56.6919 78.863 56.5443 78.9657 56.4143C79.0685 56.2768 79.1405 56.1806 79.1818 56.1257ZM83.9897 52.6665C83.969 52.742 83.9278 52.8176 83.8663 52.8932C83.8114 52.9617 83.746 53.0201 83.6709 53.068C83.602 53.1093 83.53 53.1369 83.4544 53.1506C83.3789 53.1642 83.3174 53.1506 83.2691 53.1093C83.1251 52.9995 83.0496 52.8831 83.043 52.7592C83.036 52.6287 83.0672 52.5088 83.1357 52.399C83.2042 52.2821 83.2898 52.1864 83.393 52.1108C83.4957 52.0283 83.5848 51.9804 83.6604 51.9668C83.7359 51.9527 83.7978 51.9698 83.8457 52.0181C83.9005 52.059 83.9418 52.1174 83.969 52.193C83.9967 52.2615 84.0103 52.3406 84.0103 52.4297C84.0173 52.5189 84.0103 52.598 83.9897 52.6665ZM82.5697 54.8597C82.6039 54.8184 82.6689 54.7842 82.7651 54.7565C82.8612 54.7293 82.9605 54.7086 83.0637 54.6946C83.1664 54.6743 83.259 54.6638 83.3416 54.6638C83.4307 54.6572 83.4821 54.6572 83.4957 54.6638C83.5027 54.6708 83.4856 54.7429 83.4443 54.8799C83.4031 55.0174 83.3517 55.1786 83.2898 55.364C83.2283 55.5494 83.1629 55.7413 83.0944 55.9403C83.0259 56.1327 82.9745 56.2904 82.9398 56.4143C82.9056 56.5377 82.8648 56.6782 82.8165 56.8364C82.7686 56.987 82.7238 57.1381 82.683 57.2893C82.6483 57.4333 82.6246 57.5704 82.6105 57.7008C82.5969 57.8313 82.6075 57.931 82.6417 57.9995C82.676 58.0817 82.7137 58.1401 82.755 58.1744C82.7958 58.202 82.8406 58.2157 82.8885 58.2157C83.0259 58.2157 83.1971 58.1401 83.4031 57.989C83.616 57.8383 83.8285 57.6595 84.041 57.454C84.2606 57.2409 84.463 57.0283 84.6483 56.8157C84.8336 56.5961 84.9706 56.4208 85.0601 56.2904C85.115 56.2219 85.1699 56.1775 85.2248 56.1568C85.2863 56.1362 85.3346 56.1397 85.3688 56.167C85.4097 56.1946 85.4303 56.239 85.4303 56.3009C85.4373 56.3624 85.4167 56.4345 85.3688 56.517C85.259 56.709 85.0979 56.9392 84.885 57.2067C84.6724 57.4676 84.4459 57.7215 84.2057 57.9688C83.9655 58.2086 83.7289 58.4146 83.4957 58.5864C83.2691 58.7577 83.0843 58.8473 82.9398 58.8539C82.8235 58.8609 82.7067 58.8403 82.5903 58.7924C82.4806 58.7511 82.3774 58.6927 82.2812 58.6171C82.1921 58.535 82.1166 58.4423 82.0551 58.3391C81.9932 58.2293 81.9589 58.1164 81.9519 57.9995C81.9317 57.8278 81.9317 57.5945 81.9519 57.2994C81.9725 56.9976 82.0103 56.6919 82.0652 56.3831C82.1201 56.0677 82.189 55.769 82.2711 55.4874C82.3603 55.2063 82.4599 54.9968 82.5697 54.8597ZM90.8353 58.9879C90.6773 58.9879 90.5403 58.9571 90.4235 58.8952C90.3137 58.8403 90.2246 58.7647 90.1561 58.6685C90.0876 58.5728 90.0428 58.463 90.0222 58.3391C90.0015 58.2086 90.0086 58.0716 90.0428 57.9275C90.0634 57.8313 90.0977 57.7044 90.1455 57.5467C90.1938 57.3819 90.2417 57.2067 90.29 57.0213C90.3449 56.8294 90.3927 56.6405 90.434 56.4551C90.4819 56.2631 90.5126 56.0914 90.5267 55.9403C90.5403 55.7826 90.5333 55.6557 90.506 55.5595C90.4784 55.4567 90.42 55.4053 90.3308 55.4053C90.2211 55.4053 90.1078 55.4431 89.9914 55.5186C89.8746 55.5871 89.7548 55.6829 89.6314 55.8068C89.5146 55.9302 89.3943 56.0743 89.2709 56.239C89.1545 56.3971 89.0377 56.5614 88.921 56.7332C88.8595 56.9664 88.8081 57.1724 88.7668 57.3508C88.7256 57.5225 88.6878 57.6802 88.6536 57.8247C88.6259 57.9618 88.5987 58.0852 88.571 58.195C88.5438 58.2982 88.5196 58.3975 88.499 58.4937C88.4788 58.5622 88.4169 58.6308 88.3142 58.6997C88.211 58.7612 88.1012 58.813 87.9848 58.8539C87.868 58.8952 87.7684 58.9158 87.6863 58.9158C87.5971 58.9158 87.5594 58.8851 87.573 58.8231C87.58 58.7819 87.6037 58.6892 87.645 58.5451C87.6792 58.401 87.724 58.2328 87.7789 58.0408C87.8268 57.8418 87.8781 57.6323 87.933 57.4127C87.9879 57.1931 88.0397 56.9835 88.0876 56.7845C88.1218 56.6269 88.1596 56.4516 88.2009 56.2596C88.2351 56.0949 88.2764 55.9025 88.3242 55.6829C88.3791 55.4633 88.441 55.2234 88.5095 54.9625C88.5574 54.9212 88.6057 54.8905 88.6536 54.8698C88.7084 54.8421 88.7633 54.8219 88.8182 54.8079C88.8731 54.7872 88.9315 54.7736 88.993 54.767C89.0478 54.767 89.1027 54.7701 89.1576 54.7771C89.2059 54.7842 89.2538 54.7978 89.3021 54.8184C89.357 54.832 89.4048 54.8562 89.4461 54.8905C89.4255 54.9383 89.4013 55.0069 89.3741 55.0965C89.3464 55.1786 89.3192 55.2678 89.2915 55.364C89.2643 55.4738 89.2296 55.5871 89.1888 55.7035C89.2779 55.5801 89.3772 55.4567 89.4869 55.3332C89.6037 55.2028 89.7271 55.0859 89.8575 54.9831C89.9949 54.8799 90.139 54.7978 90.29 54.7358C90.4406 54.6673 90.5952 54.6331 90.7528 54.6331C90.8832 54.6331 91 54.6708 91.1027 54.7464C91.2055 54.8219 91.2845 54.9282 91.3394 55.0653C91.4013 55.1958 91.4356 55.3534 91.4426 55.5388C91.4562 55.7242 91.432 55.9267 91.3701 56.1463L91.2573 56.5992C91.223 56.7437 91.1783 56.915 91.1234 57.114C91.0755 57.3064 91.0136 57.519 90.9381 57.7522C90.8968 57.9033 90.8797 58.0338 90.8867 58.1436C90.9003 58.2534 90.9688 58.3083 91.0926 58.3083C91.216 58.3083 91.3701 58.2328 91.5554 58.0817C91.7477 57.931 91.9396 57.7492 92.1319 57.5361C92.3238 57.3235 92.5056 57.1074 92.6773 56.8878C92.8489 56.6611 92.9794 56.4793 93.0685 56.3418C93.13 56.2526 93.1884 56.1946 93.2432 56.167C93.2981 56.1397 93.3394 56.1362 93.3666 56.1568C93.4009 56.1775 93.4184 56.2254 93.4184 56.3009C93.4184 56.3694 93.3908 56.4586 93.3359 56.5684C93.288 56.6646 93.2125 56.7916 93.1093 56.9493C93.0136 57.1074 92.8968 57.2756 92.7598 57.454C92.6224 57.6323 92.4749 57.8142 92.3172 57.9995C92.1592 58.1779 91.9945 58.3426 91.8233 58.4937C91.6516 58.6378 91.4799 58.7546 91.3087 58.8438C91.144 58.94 90.9859 58.9879 90.8353 58.9879ZM101.118 56.4656C101.166 56.4107 101.214 56.3831 101.262 56.3831C101.317 56.3765 101.358 56.3901 101.386 56.4244C101.42 56.4516 101.433 56.4964 101.427 56.5583C101.427 56.6198 101.399 56.6888 101.344 56.7639C101.214 56.9427 101.063 57.128 100.892 57.32C100.72 57.5054 100.535 57.6872 100.336 57.8656C100.144 58.0443 99.948 58.2121 99.7491 58.3703C99.5502 58.528 99.3583 58.6584 99.173 58.7612C98.9671 58.8781 98.7923 58.9365 98.6478 58.9365C98.5109 58.9365 98.3734 58.8473 98.2364 58.6685C98.1131 58.5108 98.0511 58.3426 98.0511 58.1643C98.0582 57.9789 98.099 57.7492 98.1745 57.4746C98.2228 57.3029 98.2878 57.1004 98.3703 56.8671C98.4595 56.6269 98.528 56.3971 98.5758 56.1775C98.6307 55.9579 98.6479 55.7725 98.6277 55.6214C98.607 55.4633 98.5179 55.3846 98.3598 55.3846C98.25 55.3846 98.1302 55.4224 97.9998 55.498C97.8764 55.5731 97.7495 55.6728 97.6191 55.7962C97.4953 55.9131 97.3754 56.047 97.2586 56.1977C97.1423 56.3488 97.0391 56.4964 96.9499 56.6405C96.8951 56.9084 96.8402 57.1724 96.7853 57.4333C96.7374 57.653 96.6861 57.8932 96.6312 58.1542C96.5829 58.408 96.535 58.6343 96.4871 58.8332C96.4459 58.8675 96.4011 58.8917 96.3532 58.9053C96.3054 58.9193 96.2606 58.9259 96.2193 58.9259C96.1714 58.9259 96.1231 58.9229 96.0753 58.9158C96.0204 58.9022 95.969 58.8816 95.9212 58.8539C95.8799 58.8267 95.8386 58.7889 95.7974 58.7406C95.7565 58.6997 95.7253 58.6413 95.7047 58.5657C96.0134 57.2958 96.2571 56.2768 96.4353 55.5081C96.614 54.7394 96.751 54.1525 96.8472 53.7475C96.957 53.267 97.0325 52.9344 97.0738 52.7491C97.094 52.6186 97.1111 52.4917 97.1251 52.3682C97.1387 52.2584 97.1458 52.1451 97.1458 52.0283C97.1458 51.9119 97.1352 51.8051 97.1146 51.7094C97.1695 51.6751 97.2279 51.6474 97.2898 51.6268C97.3583 51.6061 97.4233 51.589 97.4852 51.5754C97.5607 51.5547 97.6362 51.5376 97.7117 51.524C97.7873 51.5099 97.8558 51.5033 97.9172 51.5033C97.9721 51.5033 98.0239 51.5099 98.0718 51.524C98.1196 51.5306 98.1508 51.5512 98.1644 51.5855C98.2057 51.6197 98.2228 51.6887 98.2158 51.7915C98.2158 51.8947 98.2088 52.001 98.1952 52.1108C98.1679 52.2413 98.1368 52.3819 98.1025 52.533C97.9585 53.0886 97.7974 53.6311 97.6191 54.1595C97.4404 54.6809 97.2757 55.2406 97.1251 55.8375C97.2143 55.7005 97.3205 55.5595 97.4439 55.4154C97.5677 55.2713 97.7012 55.1408 97.8452 55.024C97.9963 54.9006 98.1539 54.8013 98.3185 54.7257C98.4832 54.6432 98.6584 54.6023 98.8437 54.6023C98.9398 54.6023 99.029 54.6194 99.1111 54.6537C99.2002 54.6809 99.2757 54.7323 99.3376 54.8079C99.4061 54.8768 99.4575 54.9726 99.4918 55.0965C99.526 55.2129 99.5401 55.3605 99.533 55.5388C99.533 55.6486 99.5194 55.762 99.4918 55.8788C99.4711 55.9952 99.4404 56.1257 99.3991 56.2697C99.3583 56.4072 99.3034 56.5614 99.2345 56.7332C99.173 56.9049 99.0975 57.1039 99.0083 57.3301C98.9464 57.4882 98.8986 57.6222 98.8643 57.732C98.8301 57.8418 98.8367 57.9376 98.885 58.0202C98.9464 58.13 99.0667 58.1572 99.245 58.1023C99.4303 58.0408 99.7047 57.8621 100.068 57.5673C100.15 57.4983 100.243 57.4127 100.346 57.3099C100.449 57.2067 100.549 57.1039 100.644 57.0007C100.74 56.8908 100.83 56.7881 100.912 56.6919C100.994 56.5961 101.063 56.5206 101.118 56.4656ZM103.724 58.5657C104.025 57.2958 104.265 56.2768 104.444 55.5081C104.629 54.7394 104.77 54.1525 104.866 53.7475C104.975 53.267 105.051 52.9344 105.092 52.7491C105.113 52.6186 105.13 52.4917 105.144 52.3682C105.157 52.2584 105.164 52.1451 105.164 52.0283C105.164 51.9119 105.154 51.8051 105.133 51.7094C105.188 51.6751 105.247 51.6474 105.308 51.6268C105.377 51.6061 105.442 51.589 105.504 51.5754C105.579 51.5547 105.655 51.5376 105.73 51.524C105.806 51.5099 105.874 51.5033 105.936 51.5033C105.991 51.5033 106.042 51.5099 106.09 51.524C106.139 51.5306 106.169 51.5512 106.183 51.5855C106.224 51.6197 106.241 51.6887 106.235 51.7915C106.235 51.8947 106.228 52.001 106.214 52.1108C106.186 52.2413 106.156 52.3819 106.121 52.533C106.039 52.8277 105.926 53.2533 105.782 53.8094C105.658 54.283 105.49 54.9282 105.277 55.7448C105.072 56.5614 104.811 57.591 104.495 58.8332C104.461 58.8675 104.42 58.8917 104.372 58.9053C104.324 58.9193 104.279 58.9259 104.238 58.9259C104.19 58.9259 104.139 58.9229 104.084 58.9158C104.036 58.9022 103.987 58.8816 103.94 58.8539C103.898 58.8267 103.858 58.7889 103.816 58.7406C103.775 58.6997 103.744 58.6413 103.724 58.5657ZM110.621 58.8952C110.36 58.8952 110.147 58.8539 109.983 58.7718C109.818 58.6892 109.688 58.5899 109.591 58.4731C109.502 58.3496 109.437 58.2192 109.396 58.0817C109.361 57.9376 109.344 57.8071 109.344 57.6907C109.344 57.4847 109.361 57.2686 109.396 57.042C109.43 56.8087 109.471 56.5961 109.519 56.4037C109.567 56.2047 109.609 56.0365 109.643 55.8994C109.684 55.762 109.711 55.6763 109.725 55.642C109.787 55.443 109.866 55.2713 109.962 55.1272C110.065 54.9761 110.205 54.8733 110.384 54.8184C110.452 54.8044 110.524 54.7908 110.6 54.7771C110.661 54.7701 110.723 54.767 110.785 54.767C110.854 54.767 110.916 54.7771 110.971 54.7978C110.785 55.2713 110.638 55.6658 110.528 55.9816C110.425 56.2974 110.346 56.5548 110.291 56.7538C110.229 56.9805 110.192 57.1623 110.178 57.2994C110.144 57.6082 110.171 57.8418 110.26 57.9995C110.349 58.1572 110.531 58.2363 110.806 58.2363C110.984 58.2363 111.155 58.1713 111.32 58.0408C111.485 57.9033 111.636 57.7285 111.773 57.5155C111.753 57.4057 111.742 57.2928 111.742 57.1759C111.742 56.9563 111.759 56.7437 111.794 56.5377C111.835 56.3246 111.879 56.1292 111.927 55.9508C111.982 55.7655 112.037 55.6007 112.092 55.4567C112.154 55.3126 112.205 55.1993 112.247 55.1167C112.322 54.952 112.391 54.8527 112.452 54.8184C112.514 54.7771 112.614 54.753 112.751 54.7464C112.805 54.7394 112.85 54.7394 112.885 54.7464C112.926 54.7464 112.96 54.7499 112.987 54.7565C113.07 54.7771 113.111 54.8184 113.111 54.8799C113.111 54.9897 113.104 55.1545 113.09 55.3741C113.076 55.5937 113.036 55.8204 112.967 56.0536C112.919 56.246 112.871 56.4107 112.823 56.5478C112.782 56.6782 112.741 56.7916 112.699 56.8878C112.658 56.9769 112.617 57.0525 112.576 57.114C112.535 57.1689 112.497 57.2203 112.463 57.2686C112.476 57.4746 112.493 57.6393 112.514 57.7628C112.535 57.8862 112.559 57.9824 112.586 58.0509C112.62 58.1129 112.658 58.1572 112.699 58.1849C112.747 58.2055 112.799 58.2157 112.854 58.2157C112.95 58.2157 113.063 58.1713 113.193 58.0817C113.324 57.9859 113.458 57.8691 113.594 57.732C113.739 57.5875 113.879 57.4333 114.016 57.2686C114.16 57.0969 114.291 56.9357 114.408 56.7845C114.524 56.6339 114.624 56.5034 114.706 56.3936C114.788 56.2768 114.84 56.2047 114.86 56.1775C114.908 56.1156 114.953 56.0778 114.994 56.0642C115.042 56.0501 115.08 56.0571 115.107 56.0848C115.135 56.105 115.148 56.1428 115.148 56.1977C115.155 56.246 115.142 56.3009 115.107 56.3624C114.97 56.6233 114.798 56.9014 114.593 57.1966C114.394 57.4847 114.178 57.7522 113.944 57.9995C113.718 58.2464 113.488 58.4524 113.255 58.6171C113.021 58.7819 112.802 58.8644 112.596 58.8644C112.411 58.8644 112.264 58.8025 112.154 58.6791C112.051 58.5486 111.962 58.3632 111.886 58.123C111.728 58.3703 111.543 58.5622 111.331 58.6997C111.118 58.8302 110.881 58.8952 110.621 58.8952ZM120.492 57.0933C120.423 57.3543 120.33 57.5981 120.214 57.8247C120.097 58.0509 119.956 58.2464 119.792 58.4111C119.634 58.5758 119.452 58.7032 119.246 58.7924C119.047 58.8882 118.828 58.9365 118.588 58.9365C118.306 58.9365 118.084 58.8745 117.919 58.7511C117.761 58.6343 117.641 58.4867 117.559 58.3083C117.483 58.13 117.439 57.9345 117.425 57.7215C117.404 57.5089 117.394 57.3099 117.394 57.1245C117.394 56.9941 117.411 56.85 117.445 56.6919C117.473 56.5342 117.514 56.373 117.569 56.2082C117.624 56.0435 117.692 55.8788 117.775 55.7141C117.864 55.5493 117.967 55.3982 118.084 55.2612C118.124 55.1444 118.186 55.0416 118.268 54.952C118.358 54.8628 118.457 54.7908 118.567 54.7358C118.684 54.6744 118.807 54.6295 118.938 54.6023C119.068 54.5676 119.195 54.5505 119.318 54.5505C119.339 54.5505 119.356 54.554 119.37 54.561C119.39 54.5676 119.411 54.5746 119.432 54.5817C119.521 54.5883 119.631 54.6225 119.761 54.6845C119.898 54.7464 120.028 54.8391 120.152 54.9625C120.282 55.0859 120.392 55.2436 120.481 55.436C120.571 55.6214 120.615 55.848 120.615 56.1156C120.615 56.1705 120.611 56.239 120.605 56.3216C120.598 56.3971 120.591 56.4621 120.584 56.517C120.742 56.4551 120.906 56.3795 121.078 56.2904C121.249 56.2012 121.414 56.1085 121.572 56.0123C121.737 55.9095 121.888 55.8068 122.025 55.7035C122.162 55.6007 122.272 55.5081 122.354 55.4259C122.423 55.364 122.481 55.3297 122.529 55.3227C122.577 55.3161 122.611 55.3297 122.632 55.364C122.653 55.3982 122.656 55.4461 122.642 55.5081C122.629 55.57 122.591 55.6385 122.529 55.7141C122.495 55.7554 122.405 55.8375 122.261 55.9609C122.124 56.0848 121.96 56.2183 121.767 56.3624C121.576 56.5069 121.366 56.6475 121.14 56.7845C120.913 56.922 120.697 57.0248 120.492 57.0933ZM118.752 55.5287C118.732 55.5906 118.722 55.6557 118.722 55.7242C118.722 55.834 118.728 55.9508 118.742 56.0743C118.756 56.1911 118.79 56.2974 118.845 56.3936C118.9 56.4894 118.986 56.5719 119.102 56.6405C119.226 56.7024 119.394 56.7332 119.606 56.7332C119.641 56.7332 119.675 56.7332 119.71 56.7332C119.744 56.7266 119.778 56.7195 119.812 56.7125C119.833 56.6233 119.85 56.5443 119.864 56.4758C119.884 56.4002 119.895 56.3352 119.895 56.2803C119.908 56.1498 119.908 56.0158 119.895 55.8788C119.881 55.7413 119.854 55.6179 119.812 55.5081C119.778 55.3912 119.73 55.299 119.668 55.23C119.613 55.1545 119.545 55.1167 119.462 55.1167C119.332 55.1167 119.205 55.1545 119.082 55.23C118.965 55.299 118.855 55.3982 118.752 55.5287ZM118.094 57.3406C118.094 57.4641 118.101 57.5875 118.114 57.7114C118.128 57.8278 118.156 57.9345 118.196 58.0303C118.238 58.1195 118.293 58.195 118.361 58.2569C118.43 58.3118 118.519 58.3391 118.629 58.3391C118.752 58.3391 118.866 58.3118 118.968 58.2569C119.072 58.195 119.164 58.1195 119.246 58.0303C119.328 57.9345 119.401 57.8278 119.462 57.7114C119.531 57.5875 119.589 57.4606 119.638 57.3301C119.589 57.3371 119.541 57.3442 119.493 57.3508C119.452 57.3508 119.404 57.3508 119.349 57.3508C119.089 57.3508 118.862 57.2756 118.67 57.1245C118.485 56.9664 118.34 56.7674 118.238 56.5271C118.196 56.6712 118.162 56.8122 118.135 56.9493C118.107 57.0868 118.094 57.2172 118.094 57.3406ZM127.811 58.9879C127.652 58.9879 127.515 58.9571 127.399 58.8952C127.289 58.8403 127.2 58.7647 127.131 58.6685C127.063 58.5728 127.018 58.463 126.997 58.3391C126.977 58.2086 126.984 58.0716 127.018 57.9275C127.039 57.8313 127.073 57.7044 127.121 57.5467C127.169 57.3819 127.217 57.2067 127.265 57.0213C127.32 56.8294 127.368 56.6405 127.409 56.4551C127.457 56.2631 127.488 56.0914 127.502 55.9403C127.515 55.7826 127.508 55.6557 127.481 55.5595C127.454 55.4567 127.395 55.4053 127.306 55.4053C127.196 55.4053 127.083 55.4431 126.967 55.5186C126.85 55.5871 126.73 55.6829 126.606 55.8068C126.49 55.9302 126.369 56.0743 126.246 56.239C126.13 56.3971 126.013 56.5614 125.896 56.7332C125.835 56.9664 125.783 57.1724 125.742 57.3508C125.701 57.5225 125.663 57.6802 125.629 57.8247C125.601 57.9618 125.574 58.0852 125.546 58.195C125.519 58.2982 125.495 58.3975 125.474 58.4937C125.454 58.5622 125.392 58.6308 125.289 58.6997C125.186 58.7612 125.076 58.813 124.96 58.8539C124.843 58.8952 124.744 58.9158 124.661 58.9158C124.572 58.9158 124.535 58.8851 124.548 58.8231C124.555 58.7819 124.579 58.6892 124.62 58.5451C124.654 58.401 124.699 58.2328 124.754 58.0408C124.802 57.8418 124.853 57.6323 124.908 57.4127C124.963 57.1931 125.014 56.9835 125.063 56.7845C125.097 56.6269 125.135 56.4516 125.176 56.2596C125.21 56.0949 125.252 55.9025 125.299 55.6829C125.354 55.4633 125.416 55.2234 125.485 54.9625C125.533 54.9212 125.581 54.8905 125.629 54.8698C125.684 54.8421 125.739 54.8219 125.793 54.8079C125.848 54.7872 125.907 54.7736 125.968 54.767C126.023 54.767 126.078 54.7701 126.133 54.7771C126.181 54.7842 126.229 54.7978 126.277 54.8184C126.332 54.832 126.38 54.8562 126.421 54.8905C126.401 54.9383 126.377 55.0069 126.349 55.0965C126.322 55.1786 126.294 55.2678 126.267 55.364C126.24 55.4738 126.205 55.5871 126.164 55.7035C126.253 55.5801 126.352 55.4567 126.462 55.3332C126.579 55.2028 126.702 55.0859 126.833 54.9831C126.97 54.8799 127.114 54.7978 127.265 54.7358C127.416 54.6673 127.57 54.6331 127.728 54.6331C127.858 54.6331 127.975 54.6708 128.078 54.7464C128.181 54.8219 128.26 54.9282 128.315 55.0653C128.376 55.1958 128.411 55.3534 128.417 55.5388C128.431 55.7242 128.407 55.9267 128.345 56.1463L128.232 56.5992C128.198 56.7437 128.153 56.915 128.099 57.114C128.051 57.3064 127.989 57.519 127.913 57.7522C127.872 57.9033 127.855 58.0338 127.862 58.1436C127.876 58.2534 127.944 58.3083 128.068 58.3083C128.191 58.3083 128.345 58.2328 128.531 58.0817C128.723 57.931 128.915 57.7492 129.107 57.5361C129.299 57.3235 129.481 57.1074 129.652 56.8878C129.824 56.6611 129.954 56.4793 130.044 56.3418C130.105 56.2526 130.164 56.1946 130.218 56.167C130.273 56.1397 130.315 56.1362 130.342 56.1568C130.376 56.1775 130.393 56.2254 130.393 56.3009C130.393 56.3694 130.366 56.4586 130.311 56.5684C130.263 56.6646 130.188 56.7916 130.085 56.9493C129.989 57.1074 129.872 57.2756 129.735 57.454C129.598 57.6323 129.45 57.8142 129.292 57.9995C129.134 58.1779 128.97 58.3426 128.798 58.4937C128.627 58.6378 128.455 58.7546 128.284 58.8438C128.119 58.94 127.961 58.9879 127.811 58.9879ZM135.5 60.2029C135.465 60.3676 135.421 60.5732 135.366 60.8205C135.318 61.0673 135.259 61.3282 135.191 61.6028C135.129 61.8773 135.054 62.1483 134.964 62.4163C134.882 62.6908 134.79 62.9342 134.687 63.1472C134.584 63.3668 134.47 63.5452 134.347 63.6822C134.224 63.8197 134.086 63.8882 133.936 63.8882C133.709 63.8882 133.514 63.8197 133.349 63.6822C133.191 63.5522 133.058 63.384 132.948 63.178C132.838 62.979 132.759 62.7629 132.711 62.5292C132.656 62.2959 132.629 62.0798 132.629 61.8808C132.629 61.6063 132.653 61.3761 132.701 61.1912C132.749 61.0124 132.831 60.8411 132.948 60.6764C133.071 60.5117 133.236 60.3364 133.442 60.151C133.647 59.9657 133.912 59.7359 134.234 59.4614C134.392 59.3243 134.542 59.1939 134.687 59.07C134.831 58.9466 134.968 58.8333 135.098 58.7305C135.133 58.5934 135.164 58.466 135.191 58.3496C135.225 58.2262 135.253 58.1164 135.274 58.0202C135.095 58.2605 134.879 58.463 134.625 58.6277C134.378 58.7924 134.093 58.8745 133.771 58.8745C133.476 58.8745 133.236 58.7441 133.05 58.4836C132.872 58.2157 132.783 57.8247 132.783 57.3099C132.783 57.056 132.831 56.7639 132.927 56.4345C133.023 56.105 133.16 55.7962 133.339 55.5081C133.517 55.2199 133.737 54.9761 133.997 54.7771C134.258 54.5782 134.55 54.4784 134.872 54.4784C135.023 54.4784 135.153 54.5162 135.263 54.5918C135.373 54.6673 135.465 54.7635 135.541 54.8799C135.616 54.9897 135.675 55.1101 135.716 55.2406C135.757 55.364 135.788 55.4808 135.808 55.5906C135.822 55.5494 135.832 55.5081 135.84 55.4668C135.846 55.4189 135.857 55.3776 135.87 55.3433C135.939 55.1101 136.014 54.952 136.097 54.8698C136.186 54.7806 136.316 54.7358 136.488 54.7358C136.584 54.7358 136.663 54.753 136.724 54.7872C136.793 54.8219 136.827 54.8527 136.827 54.8799C136.793 54.9555 136.766 55.0139 136.745 55.0552C136.724 55.0965 136.704 55.1408 136.683 55.1892C136.663 55.23 136.642 55.2849 136.622 55.3534C136.601 55.4224 136.573 55.5217 136.539 55.6521C136.525 55.7005 136.498 55.8133 136.457 55.9921C136.423 56.1634 136.374 56.3694 136.313 56.6097C136.258 56.85 136.196 57.114 136.128 57.4026C136.066 57.6907 136.004 57.9719 135.942 58.2464C136.134 58.1366 136.333 58.003 136.539 57.8449C136.745 57.6872 136.94 57.526 137.126 57.3613C137.311 57.1966 137.476 57.042 137.62 56.8979C137.764 56.7468 137.87 56.6233 137.939 56.5271C137.994 56.445 138.055 56.3866 138.124 56.3523C138.193 56.3181 138.251 56.3075 138.299 56.3216C138.354 56.3282 138.384 56.3593 138.391 56.4143C138.405 56.4621 138.384 56.5307 138.33 56.6198C138.172 56.8737 137.98 57.121 137.753 57.3613C137.527 57.5945 137.294 57.8142 137.054 58.0202C136.82 58.2192 136.591 58.3975 136.364 58.5556C136.145 58.7063 135.956 58.8302 135.798 58.9259C135.73 59.2347 135.671 59.4856 135.623 59.6775C135.575 59.8699 135.534 60.0447 135.5 60.2029ZM134.203 58.1744C134.347 58.1744 134.481 58.1366 134.604 58.0615C134.735 57.9859 134.852 57.8998 134.954 57.8041C135.057 57.7008 135.143 57.5981 135.212 57.4953C135.28 57.392 135.332 57.3099 135.366 57.248C135.393 57.186 135.424 57.1039 135.458 57.0007C135.5 56.8979 135.53 56.7986 135.551 56.7024C135.572 56.6062 135.579 56.5206 135.572 56.445C135.572 56.3694 135.548 56.3282 135.5 56.3216C135.458 56.3145 135.424 56.2873 135.397 56.239C135.376 56.1911 135.359 56.1362 135.346 56.0743C135.332 56.0123 135.321 55.9508 135.314 55.8889C135.314 55.8274 135.311 55.7725 135.304 55.7242C135.27 55.4839 135.212 55.3091 135.129 55.1993C135.047 55.0894 134.954 55.0345 134.852 55.0345C134.68 55.0345 134.515 55.1031 134.358 55.2406C134.207 55.3776 134.069 55.5559 133.946 55.7756C133.829 55.9886 133.737 56.2254 133.668 56.4863C133.599 56.7402 133.565 56.9835 133.565 57.2172C133.565 57.5054 133.606 57.7386 133.688 57.917C133.771 58.0887 133.942 58.1744 134.203 58.1744ZM133.73 62.9513C133.867 62.9513 133.976 62.8485 134.059 62.6425C134.148 62.4435 134.241 62.169 134.337 61.8189C134.358 61.7368 134.385 61.6164 134.419 61.4587C134.46 61.3076 134.505 61.1328 134.553 60.9338C134.608 60.7344 134.663 60.5182 134.718 60.285C134.773 60.0583 134.831 59.8286 134.892 59.5954C134.838 59.6432 134.78 59.6916 134.718 59.7394C134.663 59.7943 134.604 59.8558 134.542 59.9248C134.392 60.0689 134.244 60.2059 134.1 60.3364C133.963 60.4739 133.84 60.6144 133.73 60.7585C133.62 60.9096 133.531 61.0708 133.462 61.2426C133.4 61.4139 133.37 61.6129 133.37 61.8395C133.37 62.0662 133.376 62.2516 133.39 62.3956C133.411 62.5397 133.435 62.653 133.462 62.7352C133.497 62.8178 133.534 62.8727 133.575 62.8999C133.623 62.9342 133.675 62.9513 133.73 62.9513ZM141.316 57.9481C141.494 57.9205 141.635 57.9376 141.738 57.9995C141.848 58.0544 141.896 58.1607 141.882 58.3184C141.875 58.408 141.838 58.4937 141.769 58.5758C141.707 58.6514 141.628 58.7204 141.532 58.7819C141.443 58.8438 141.347 58.8917 141.244 58.9259C141.141 58.9602 141.052 58.9773 140.977 58.9773C140.839 58.9773 140.719 58.9466 140.616 58.8851C140.506 58.8231 140.459 58.7234 140.472 58.5864C140.479 58.4972 140.51 58.4181 140.565 58.3496C140.613 58.2741 140.678 58.2086 140.76 58.1542C140.836 58.0988 140.922 58.0544 141.018 58.0202C141.121 57.9859 141.22 57.9618 141.316 57.9481ZM147.956 58.3804C148.168 58.3804 148.402 58.2982 148.656 58.1335C148.916 57.9618 149.167 57.7628 149.407 57.5361C149.654 57.3099 149.877 57.0797 150.076 56.8465C150.282 56.6062 150.436 56.4143 150.539 56.2697C150.6 56.1806 150.659 56.1292 150.714 56.1156C150.769 56.0949 150.81 56.1019 150.837 56.1362C150.865 56.1705 150.875 56.2254 150.868 56.3009C150.861 56.3694 150.831 56.4485 150.776 56.5377C150.727 56.6198 150.645 56.7402 150.528 56.8979C150.419 57.049 150.285 57.2172 150.127 57.4026C149.976 57.5809 149.801 57.7663 149.602 57.9582C149.41 58.1436 149.208 58.3154 148.995 58.4731C148.783 58.6242 148.563 58.7476 148.337 58.8438C148.11 58.9466 147.887 58.998 147.668 58.998C147.366 58.998 147.112 58.94 146.906 58.8231C146.707 58.7133 146.546 58.5693 146.423 58.3909C146.306 58.2121 146.224 58.0167 146.175 57.8041C146.128 57.5844 146.103 57.3679 146.103 57.1553C146.103 56.9427 146.152 56.6782 146.247 56.3624C146.344 56.047 146.484 55.7448 146.669 55.4567C146.862 55.1615 147.102 54.9111 147.39 54.7051C147.678 54.4925 148.018 54.3858 148.409 54.3858C148.628 54.3858 148.813 54.4613 148.964 54.6124C149.122 54.7635 149.198 54.9695 149.191 55.23C149.191 55.3534 149.17 55.4773 149.129 55.6007C149.088 55.7176 149.033 55.8239 148.964 55.9201C148.896 56.0093 148.813 56.0813 148.717 56.1362C148.628 56.1911 148.529 56.2183 148.419 56.2183C148.33 56.2183 148.261 56.1876 148.213 56.1257C148.172 56.0571 148.145 55.9816 148.131 55.8994C148.124 55.8103 148.124 55.7242 148.131 55.642C148.145 55.5595 148.158 55.5045 148.172 55.4773C148.206 55.429 148.244 55.3947 148.285 55.3741C148.326 55.3534 148.374 55.3297 148.429 55.302C148.47 55.2814 148.501 55.2507 148.522 55.2094C148.549 55.1685 148.563 55.1237 148.563 55.0758C148.563 55.0275 148.549 54.9867 148.522 54.952C148.494 54.9177 148.45 54.9006 148.388 54.9006C148.326 54.9006 148.213 54.952 148.049 55.0552C147.89 55.1514 147.726 55.299 147.555 55.498C147.39 55.6899 147.242 55.9337 147.112 56.2289C146.982 56.5241 146.913 56.8671 146.906 57.2581C146.899 57.4847 146.93 57.6701 146.999 57.8142C147.067 57.9582 147.153 58.0716 147.256 58.1542C147.359 58.2363 147.472 58.2947 147.596 58.329C147.719 58.3632 147.839 58.3804 147.956 58.3804ZM156.242 57.0933C156.174 57.3543 156.081 57.5981 155.964 57.8247C155.847 58.0509 155.707 58.2464 155.542 58.4111C155.385 58.5758 155.203 58.7032 154.997 58.7924C154.798 58.8882 154.578 58.9365 154.338 58.9365C154.057 58.9365 153.834 58.8745 153.669 58.7511C153.512 58.6343 153.392 58.4867 153.309 58.3083C153.234 58.13 153.189 57.9345 153.175 57.7215C153.155 57.5089 153.144 57.3099 153.144 57.1245C153.144 56.9941 153.162 56.85 153.196 56.6919C153.223 56.5342 153.265 56.373 153.32 56.2082C153.375 56.0435 153.443 55.8788 153.525 55.7141C153.614 55.5493 153.717 55.3982 153.834 55.2612C153.875 55.1444 153.937 55.0416 154.019 54.952C154.108 54.8628 154.208 54.7908 154.318 54.7358C154.434 54.6744 154.558 54.6295 154.688 54.6023C154.819 54.5676 154.946 54.5505 155.069 54.5505C155.09 54.5505 155.107 54.554 155.12 54.561C155.141 54.5676 155.162 54.5746 155.182 54.5817C155.271 54.5883 155.381 54.6225 155.512 54.6845C155.649 54.7464 155.779 54.8391 155.902 54.9625C156.033 55.0859 156.142 55.2436 156.232 55.436C156.321 55.6214 156.366 55.848 156.366 56.1156C156.366 56.1705 156.362 56.239 156.355 56.3216C156.348 56.3971 156.341 56.4621 156.335 56.517C156.492 56.4551 156.657 56.3795 156.829 56.2904C157 56.2012 157.165 56.1085 157.323 56.0123C157.487 55.9095 157.638 55.8068 157.775 55.7035C157.912 55.6007 158.022 55.5081 158.105 55.4259C158.173 55.364 158.232 55.3297 158.279 55.3227C158.328 55.3161 158.362 55.3297 158.383 55.364C158.403 55.3982 158.406 55.4461 158.393 55.5081C158.379 55.57 158.341 55.6385 158.279 55.7141C158.245 55.7554 158.156 55.8375 158.012 55.9609C157.875 56.0848 157.71 56.2183 157.518 56.3624C157.326 56.5069 157.117 56.6475 156.89 56.7845C156.664 56.922 156.448 57.0248 156.242 57.0933ZM154.503 55.5287C154.482 55.5906 154.472 55.6557 154.472 55.7242C154.472 55.834 154.479 55.9508 154.492 56.0743C154.506 56.1911 154.541 56.2974 154.596 56.3936C154.65 56.4894 154.736 56.5719 154.853 56.6405C154.976 56.7024 155.144 56.7332 155.357 56.7332C155.391 56.7332 155.425 56.7332 155.46 56.7332C155.494 56.7266 155.529 56.7195 155.563 56.7125C155.584 56.6233 155.601 56.5443 155.614 56.4758C155.635 56.4002 155.645 56.3352 155.645 56.2803C155.659 56.1498 155.659 56.0158 155.645 55.8788C155.631 55.7413 155.604 55.6179 155.563 55.5081C155.529 55.3912 155.48 55.299 155.419 55.23C155.364 55.1545 155.295 55.1167 155.213 55.1167C155.083 55.1167 154.956 55.1545 154.832 55.23C154.715 55.299 154.606 55.3982 154.503 55.5287ZM153.844 57.3406C153.844 57.4641 153.851 57.5875 153.865 57.7114C153.879 57.8278 153.906 57.9345 153.947 58.0303C153.988 58.1195 154.043 58.195 154.112 58.2569C154.18 58.3118 154.27 58.3391 154.38 58.3391C154.503 58.3391 154.616 58.3118 154.719 58.2569C154.822 58.195 154.914 58.1195 154.997 58.0303C155.079 57.9345 155.151 57.8278 155.213 57.7114C155.281 57.5875 155.34 57.4606 155.388 57.3301C155.34 57.3371 155.292 57.3442 155.244 57.3508C155.203 57.3508 155.155 57.3508 155.1 57.3508C154.839 57.3508 154.613 57.2756 154.42 57.1245C154.235 56.9664 154.091 56.7674 153.988 56.5271C153.947 56.6712 153.913 56.8122 153.886 56.9493C153.858 57.0868 153.844 57.2172 153.844 57.3406ZM165.3 58.2569C165.3 58.1129 165.314 57.9481 165.341 57.7628C165.375 57.5774 165.417 57.3885 165.465 57.1966C165.513 56.9976 165.561 56.8052 165.609 56.6198C165.657 56.4345 165.698 56.2697 165.732 56.1257C165.774 55.9473 165.77 55.8103 165.722 55.7141C165.674 55.6179 165.592 55.57 165.475 55.57C165.42 55.57 165.31 55.6179 165.146 55.7141C164.988 55.8103 164.813 55.9781 164.621 56.2183C164.436 56.4516 164.25 56.7709 164.065 57.1759C163.887 57.5739 163.746 58.0817 163.643 58.6997C163.513 58.7682 163.389 58.813 163.273 58.8332C163.211 58.8473 163.156 58.8574 163.108 58.8644C162.971 58.871 162.882 58.8473 162.841 58.7924C162.799 58.7441 162.806 58.6206 162.861 58.4217C162.888 58.3255 162.937 58.1713 163.005 57.9582C163.081 57.7456 163.153 57.5155 163.221 57.2686C163.29 57.0147 163.348 56.7639 163.396 56.517C163.451 56.2631 163.479 56.0435 163.479 55.8581C163.479 55.7277 163.454 55.6385 163.407 55.5906C163.365 55.5423 163.304 55.5186 163.221 55.5186C163.159 55.5186 163.057 55.5529 162.913 55.6214C162.769 55.6899 162.607 55.8239 162.429 56.0229C162.25 56.2219 162.072 56.4999 161.894 56.8566C161.722 57.2067 161.575 57.6631 161.451 58.2262V58.2056C161.438 58.2605 161.424 58.3154 161.41 58.3703C161.396 58.4182 161.386 58.4695 161.379 58.5245C161.372 58.5794 161.362 58.6308 161.348 58.6791L160.834 58.9053C160.799 58.9193 160.755 58.9294 160.7 58.9365C160.652 58.9431 160.604 58.933 160.556 58.9053C160.515 58.8851 160.484 58.8368 160.463 58.7612C160.443 58.6857 160.45 58.5728 160.484 58.4217L161.132 55.7347C161.153 55.6456 161.17 55.5595 161.184 55.4773C161.198 55.4018 161.204 55.3297 161.204 55.2612C161.211 55.1856 161.208 55.1237 161.194 55.0758C161.311 55.0209 161.414 54.9796 161.503 54.952C161.592 54.9247 161.664 54.9041 161.719 54.8905C161.787 54.8698 161.846 54.8597 161.894 54.8597C162.113 54.8597 162.186 55.0482 162.11 55.4259C162.082 55.5357 162.041 55.6969 161.987 55.9095C162.117 55.7448 162.254 55.5906 162.398 55.4461C162.549 55.2955 162.7 55.1615 162.851 55.0446C163.002 54.9282 163.153 54.8356 163.304 54.767C163.461 54.6981 163.616 54.6638 163.767 54.6638C163.883 54.6638 163.98 54.6981 164.055 54.767C164.137 54.8356 164.199 54.9282 164.24 55.0446C164.288 55.1545 164.315 55.2884 164.322 55.4461C164.33 55.5972 164.323 55.7554 164.302 55.9201C164.412 55.7756 164.531 55.6315 164.662 55.4874C164.799 55.3363 164.94 55.2028 165.084 55.0859C165.235 54.9695 165.389 54.8733 165.547 54.7978C165.705 54.7222 165.863 54.6845 166.02 54.6845C166.206 54.6845 166.346 54.7394 166.442 54.8492C166.545 54.959 166.614 55.0996 166.648 55.2713C166.69 55.4431 166.7 55.6284 166.679 55.8274C166.665 56.0264 166.638 56.2183 166.597 56.4037L166.247 57.7935C166.171 58.1366 166.243 58.3083 166.463 58.3083C166.635 58.3083 166.823 58.2262 167.029 58.0615C167.235 57.8968 167.434 57.7008 167.626 57.4746C167.825 57.248 168.01 57.0147 168.182 56.7744C168.353 56.5342 168.497 56.3418 168.614 56.1977C168.655 56.1498 168.696 56.1221 168.737 56.1156C168.785 56.1085 168.823 56.1191 168.85 56.1463C168.885 56.167 168.902 56.2047 168.902 56.2596C168.909 56.3145 168.892 56.3831 168.85 56.4656C168.713 56.7059 168.545 56.9734 168.346 57.2686C168.147 57.5568 167.928 57.8278 167.688 58.0817C167.454 58.336 167.204 58.5486 166.936 58.7204C166.669 58.8917 166.391 58.9773 166.103 58.9773C166.007 58.9773 165.911 58.9672 165.814 58.9466C165.725 58.9259 165.64 58.8882 165.557 58.8332C165.482 58.7783 165.42 58.7063 165.372 58.6171C165.324 58.5209 165.3 58.401 165.3 58.2569Z" fill="#E8533A"/>
</g>
<defs>
<clipPath id="clip0_857_175">
<rect width="200" height="64" fill="white"/>
</clipPath>
</defs>
</svg>
